<svg id="present-huddle" xmlns="http://www.w3.org/2000/svg" width="127px" height="110px" viewBox="0 0 52.61 45.96"><defs><style>.cls-1,.cls-2,.cls-3{fill:none;stroke:#E87722;}.cls-1,.cls-3{stroke-linecap:round;stroke-linejoin:round;}.cls-1{stroke-width:0.93px;}.cls-2{stroke-miterlimit:10;stroke-width:0.52px;}.cls-3{stroke-width:0.99px;}</style></defs><title>present-huddle</title><path class="cls-1" d="M157.59,185" transform="translate(-113.11 -161.23)"/><rect class="cls-2" x="24.22" y="4" width="2.8" height="3.83" rx="1.4" ry="1.4"/><polyline class="cls-2" points="26.71 15.68 28.61 15.69 27.63 12.5"/><polyline class="cls-2" points="24.7 15.68 22.8 15.69 23.79 12.5"/><path class="cls-2" d="M142.74,176.23l-1.34-4.55a1.75,1.75,0,0,0-1.65-1.31h-1.87a1.69,1.69,0,0,0-1.59,1.12l-1.56,4.38" transform="translate(-113.11 -161.23)"/><rect class="cls-3" x="11.04" y="0.5" width="30.01" height="18.8" rx="1.07" ry="1.07"/><rect class="cls-3" x="158.42" y="177.32" width="3.93" height="5.37" rx="1.96" ry="1.96" transform="translate(207.65 198.77) rotate(180)"/><rect class="cls-3" x="115.65" y="177.32" width="3.93" height="5.37" rx="1.96" ry="1.96" transform="translate(122.12 198.77) rotate(180)"/><path class="cls-3" d="M125.39,192.48c1-.15,27.55,0,27.55,0" transform="translate(-113.11 -161.23)"/><line class="cls-3" x1="25.62" y1="33.12" x2="25.62" y2="45.46"/><path class="cls-3" d="M165.22,194v-7a2,2,0,0,0-2-2h-5.73a2,2,0,0,0-1.39.57l-5.25,5" transform="translate(-113.11 -161.23)"/><path class="cls-3" d="M113.61,194v-7a2,2,0,0,1,2-2h5.73a2,2,0,0,1,1.39.57l5.25,5" transform="translate(-113.11 -161.23)"/><path class="cls-3" d="M116.65,190.07l0.31,6.69H123a1.74,1.74,0,0,1,1.59,1l2.89,6.49" transform="translate(-113.11 -161.23)"/><path class="cls-3" d="M162.51,190l-0.31,6.69h-6.07a1.72,1.72,0,0,0-1.57,1l-2.9,6.5" transform="translate(-113.11 -161.23)"/></svg>
