<svg id="present-auditoriums" xmlns="http://www.w3.org/2000/svg" width="117px" height="112px" viewBox="0 0 46.51 44.59"><defs><style>.cls-1,.cls-2{fill:none;stroke:#E87722;stroke-linecap:round;stroke-linejoin:round;}.cls-1{stroke-width:0.54px;}.cls-2{stroke-width:0.99px;}</style></defs><title>present-auditoriums</title><rect class="cls-1" x="15.23" y="11.13" width="1.89" height="2.59" rx="0.95" ry="0.95"/><path class="cls-1" d="M42.41,177.65l-1.6,1v-1.33a1,1,0,0,0-.84-1H37.41a0.89,0.89,0,0,0-.78,1v3.31" transform="translate(-22.48 -161.69)"/><line class="cls-1" x1="16.17" y1="14.78" x2="16.17" y2="15.1"/><line class="cls-1" x1="16.17" y1="15.59" x2="16.17" y2="17.05"/><line class="cls-1" x1="15.23" y1="19.17" x2="15.23" y2="23.87"/><line class="cls-1" x1="19.89" y1="16.03" x2="21.9" y2="14.75"/><path class="cls-2" d="M35.49,205.78v-6.67a1.78,1.78,0,0,0-1.58-1.93H28.75A1.81,1.81,0,0,0,26.94,199v6.79" transform="translate(-22.48 -161.69)"/><path class="cls-2" d="M50,205.7V199a1.78,1.78,0,0,0-1.58-1.93H43.25a1.81,1.81,0,0,0-1.81,1.81v6.79" transform="translate(-22.48 -161.69)"/><rect class="cls-2" x="43.75" y="190.38" width="3.93" height="5.37" rx="1.96" ry="1.96" transform="translate(68.95 224.44) rotate(-180)"/><path class="cls-2" d="M64.32,205.7V199a1.78,1.78,0,0,0-1.58-1.93H57.58a1.81,1.81,0,0,0-1.81,1.81v6.79" transform="translate(-22.48 -161.69)"/><rect class="cls-2" x="58.08" y="190.38" width="3.93" height="5.37" rx="1.96" ry="1.96" transform="translate(97.62 224.44) rotate(180)"/><rect class="cls-2" x="29.26" y="190.38" width="3.93" height="5.37" rx="1.96" ry="1.96" transform="translate(39.96 224.44) rotate(180)"/><line class="cls-2" x1="29.32" y1="39.7" x2="31.62" y2="39.7"/><line class="cls-2" x1="14.61" y1="39.95" x2="17.22" y2="39.95"/><line class="cls-2" x1="0.5" y1="39.7" x2="3.11" y2="39.7"/><line class="cls-2" x1="43.4" y1="39.7" x2="46.02" y2="39.7"/><path class="cls-1" d="M47.91,180.58h6.44a0.33,0.33,0,0,0,.34-0.33v-7.85a0.33,0.33,0,0,0-.34-0.33h-12a0.33,0.33,0,0,0-.34.33v1.44" transform="translate(-22.48 -161.69)"/><path class="cls-2" d="M23.19,184V170.65c0-4.67,2.39-8.46,6.57-8.46H60.68c4.18,0,6.57,3.79,6.57,8.46V184" transform="translate(-22.48 -161.69)"/></svg>
