<svg id="present-conference" xmlns="http://www.w3.org/2000/svg" width="134px" height="110px" viewBox="0 0 61.02 50.73"><defs><style>.cls-1,.cls-2{fill:none;stroke:#E87722;stroke-linecap:round;stroke-linejoin:round;}.cls-1{stroke-width:0.99px;}</style></defs><title>present-conference</title><path class="cls-1" d="M115.89,221.93" transform="translate(-101.54 -221.51)"/><rect class="cls-2" x="15.45" y="0.5" width="30.01" height="18.8" rx="1.07" ry="1.07"/><rect class="cls-2" x="107.53" y="240.96" width="3.93" height="5.37" rx="1.96" ry="1.96" transform="translate(117.44 265.78) rotate(180)"/><path class="cls-2" d="M105.21,253.26v-3.79a1.81,1.81,0,0,1,1.81-1.81h5.16a1.78,1.78,0,0,1,1.58,1.93v5.57a1.82,1.82,0,0,0,1.82,1.82H116" transform="translate(-101.54 -221.51)"/><path class="cls-2" d="M102,270v-6.79a1.81,1.81,0,0,1,1.81-1.81H109a1.78,1.78,0,0,1,1.58,1.93v5.57a1.82,1.82,0,0,0,1.82,1.82h0.41" transform="translate(-101.54 -221.51)"/><rect class="cls-2" x="107.53" y="240.95" width="3.93" height="5.37" rx="1.96" ry="1.96" transform="translate(117.44 265.76) rotate(-180)"/><rect class="cls-2" x="104.52" y="254.64" width="3.93" height="5.37" rx="1.96" ry="1.96" transform="translate(111.42 293.14) rotate(180)"/><rect class="cls-2" x="51.1" y="19.45" width="3.93" height="5.37" rx="1.96" ry="1.96"/><path class="cls-2" d="M158.88,253.26v-3.79a1.81,1.81,0,0,0-1.81-1.81h-5.16a1.78,1.78,0,0,0-1.58,1.93v5.57a1.82,1.82,0,0,1-1.82,1.82h-0.41" transform="translate(-101.54 -221.51)"/><path class="cls-2" d="M162.06,270v-6.79a1.81,1.81,0,0,0-1.81-1.81h-5.16a1.78,1.78,0,0,0-1.58,1.93v5.57a1.82,1.82,0,0,1-1.82,1.82h-0.41" transform="translate(-101.54 -221.51)"/><rect class="cls-2" x="51.1" y="19.44" width="3.93" height="5.37" rx="1.96" ry="1.96"/><rect class="cls-2" x="54.12" y="33.13" width="3.93" height="5.37" rx="1.96" ry="1.96"/><polyline class="cls-2" points="12.99 50.23 19.63 24.41 40.92 24.41 48.13 50.23"/></svg>
