<svg id="Layer_1" data-name="Layer 1" xmlns="http://www.w3.org/2000/svg" viewBox="0 0 43.07 43.66"><defs><style>.cls-1,.cls-2,.cls-3,.cls-4,.cls-5,.cls-6,.cls-7,.cls-8{fill:none;stroke:#bcdde6;}.cls-1,.cls-3,.cls-5,.cls-6,.cls-7,.cls-8{stroke-linecap:round;stroke-linejoin:round;}.cls-1,.cls-2{stroke-width:0.97px;}.cls-2,.cls-4{stroke-miterlimit:10;}.cls-5{stroke-width:0.54px;}.cls-6{stroke-width:0.51px;}.cls-7{stroke-width:0.57px;}.cls-8{stroke-width:0.95px;}</style></defs><title>explore_teach_and_train</title><path class="cls-1" d="M157.28,140.07v-8a2.13,2.13,0,0,1,1.88-2.3h6.15a2.16,2.16,0,0,1,2.16,2.16v8.1" transform="translate(-139.18 -96.9)"/><rect class="cls-2" x="20.93" y="24.59" width="4.54" height="6.21" rx="2.27" ry="2.27"/><rect class="cls-2" x="32.5" y="24.48" width="4.54" height="6.21" rx="2.27" ry="2.27"/><path class="cls-1" d="M181.76,122.36l-4,6.53a1.68,1.68,0,0,1-1.44.81h-5.21a2.13,2.13,0,0,0-1.88,2.3v8" transform="translate(-139.18 -96.9)"/><path class="cls-3" d="M150,115.37" transform="translate(-139.18 -96.9)"/><path class="cls-3" d="M158.82,111.39" transform="translate(-139.18 -96.9)"/><rect class="cls-4" x="144.55" y="104.91" width="4.68" height="6.4" rx="2.34" ry="2.34" transform="translate(154.6 119.32) rotate(-180)"/><line class="cls-3" x1="10.32" y1="27.66" x2="10.32" y2="39.3"/><line class="cls-3" x1="5.37" y1="27.66" x2="5.37" y2="39.3"/><polyline class="cls-3" points="5.37 27.63 2.19 27.66 3.85 22.33"/><polyline class="cls-3" points="10.32 27.63 13.5 27.66 11.85 22.33"/><path class="cls-3" d="M158.77,113.6H144.66a2.92,2.92,0,0,0-2.75,2.18l-2.23,7.6" transform="translate(-139.18 -96.9)"/><circle class="cls-5" cx="167.17" cy="108.58" r="5.45" transform="translate(-156.85 86.29) rotate(-54.98)"/><path class="cls-5" d="M163.89,104.22a11.54,11.54,0,0,0,8.62,5.45" transform="translate(-139.18 -96.9)"/><path class="cls-6" d="M169.57,113.32a9.59,9.59,0,0,0-7.84-4.91" transform="translate(-139.18 -96.9)"/><path class="cls-7" d="M168.79,103.5s-4.83,2-5.76,8.44" transform="translate(-139.18 -96.9)"/><path class="cls-7" d="M165.53,113.7s4.83-2,5.76-8.44" transform="translate(-139.18 -96.9)"/><line class="cls-5" x1="30.87" y1="7.42" x2="24.98" y2="15.83"/><path class="cls-8" d="M161.59,117.89h16.72a0.83,0.83,0,0,0,.87-0.79V98.16a0.83,0.83,0,0,0-.87-0.79h-31.1a0.83,0.83,0,0,0-.87.79v3.47" transform="translate(-139.18 -96.9)"/></svg>