<svg id="Layer_1" data-name="Layer 1" xmlns="http://www.w3.org/2000/svg" viewBox="0 0 39.77 42.3"><defs><style>.cls-1,.cls-2,.cls-3,.cls-4,.cls-5{fill:none;stroke:#bcdde6;}.cls-1,.cls-3,.cls-4,.cls-5{stroke-linecap:round;stroke-linejoin:round;}.cls-2{stroke-miterlimit:10;}.cls-3{stroke-width:0.99px;}.cls-4{stroke-width:1.02px;}.cls-5{stroke-width:0.97px;}</style></defs><title>explore_present</title><line class="cls-1" x1="17.45" y1="10.26" x2="18.76" y2="11.26"/><line class="cls-1" x1="20.69" y1="8.87" x2="18.76" y2="11.26"/><rect class="cls-2" x="7.94" y="10.4" width="4.68" height="6.4" rx="2.34" ry="2.34"/><line class="cls-1" x1="8.79" y1="30.15" x2="8.79" y2="41.8"/><line class="cls-1" x1="13.74" y1="30.15" x2="13.74" y2="41.8"/><rect class="cls-2" x="24.52" y="10.48" width="4.68" height="6.4" rx="2.34" ry="2.34"/><line class="cls-1" x1="23.73" y1="30.02" x2="23.73" y2="41.66"/><line class="cls-1" x1="28.68" y1="30.02" x2="28.68" y2="41.66"/><polyline class="cls-1" points="28.68 29.99 31.86 30.02 30.2 24.69"/><path class="cls-1" d="M109.93,126.14l-2.23-7.6a2.92,2.92,0,0,0-2.75-2.18h-3.12a2.82,2.82,0,0,0-2.66,1.87l-2.61,7.32" transform="translate(-76.38 -97.3)"/><path class="cls-3" d="M76.88,123.09V98.88a1.08,1.08,0,0,1,1.07-1.09h36.65a1.08,1.08,0,0,1,1.07,1.09v24.21a1.08,1.08,0,0,1-1.07,1.09" transform="translate(-76.38 -97.3)"/><path class="cls-4" d="M81.12,126.69" transform="translate(-76.38 -97.3)"/><path class="cls-5" d="M81.4,127l1.18-8.44a2.09,2.09,0,0,1,2-1.66h5.09a1.47,1.47,0,0,0,1.27-.79L94.34,110" transform="translate(-76.38 -97.3)"/></svg>