<svg id="Layer_1" data-name="Layer 1" xmlns="http://www.w3.org/2000/svg" viewBox="0 0 45.7 30.43"><defs><style>.cls-1{fill:none;stroke:#e67725;stroke-miterlimit:10;}</style></defs><title>collaborate--easy-to-use</title><rect class="cls-1" x="27.19" y="4.31" width="4.68" height="6.4" rx="2.34" ry="2.34"/><polyline class="cls-1" points="31.35 23.81 34.53 23.84 32.88 18.51"/><path class="cls-1" d="M301.69,273.84l-2.23-7.6a2.92,2.92,0,0,0-2.75-2.18h-3.12a2.82,2.82,0,0,0-2.66,1.87l-2.61,7.32" transform="translate(-265.47 -251.17)"/><path class="cls-1" d="M276.16,264.41l-0.5-4a1.06,1.06,0,0,0-.94-1.15h-3.08a1.08,1.08,0,0,0-1.08,1.08l-0.5,4.05" transform="translate(-265.47 -251.17)"/><rect class="cls-1" x="271.94" y="254.8" width="2.34" height="3.2" rx="1.17" ry="1.17" transform="translate(280.75 261.63) rotate(180)"/><path class="cls-1" d="M276.16,278.08l-0.5-4a1.06,1.06,0,0,0-.94-1.15h-3.08a1.08,1.08,0,0,0-1.08,1.08l-0.5,4.05" transform="translate(-265.47 -251.17)"/><rect class="cls-1" x="271.94" y="268.47" width="2.34" height="3.2" rx="1.17" ry="1.17" transform="translate(280.75 288.96) rotate(-180)"/><line class="cls-1" x1="14.78" y1="25.74" x2="45.2" y2="25.74"/><line class="cls-1" x1="24.66" y1="25.74" x2="24.66" y2="29.93"/><line class="cls-1" x1="35.16" y1="25.74" x2="35.16" y2="29.93"/><rect class="cls-1" x="0.5" y="0.5" width="44.7" height="29.43" rx="1.29" ry="1.29"/><line class="cls-1" x1="14.78" y1="0.5" x2="14.78" y2="29.93"/><line class="cls-1" x1="0.5" y1="15.22" x2="14.78" y2="15.22"/><line class="cls-1" x1="17.03" y1="27.84" x2="22.41" y2="27.84"/></svg>