<svg id="Layer_2" data-name="Layer 2" xmlns="http://www.w3.org/2000/svg" viewBox="0 0 46.71 37.5"><defs><style>.cls-1,.cls-2,.cls-4{fill:none;stroke:#e77724;stroke-linejoin:round;}.cls-1,.cls-2{stroke-linecap:round;}.cls-2{stroke-width:0.54px;}.cls-3{fill:#e77724;}</style></defs><title>collaborate--low-cost</title><path class="cls-1" d="M440.5,231.37h9.56a9.84,9.84,0,1,0-3.76-18.93c0-.22,0-0.44,0-0.66a9.84,9.84,0,1,0-19.27,2.81l-0.41,0a7,7,0,0,0-6.94,6.56l-0.39,0a5.13,5.13,0,1,0,0,10.26h11.34" transform="translate(-413.7 -201.44)"/><path class="cls-1" d="M450.33,211.7a9.81,9.81,0,0,0-7,2.88" transform="translate(-413.7 -201.44)"/><line class="cls-2" x1="22.47" y1="24.25" x2="22.47" y2="37.23"/><line class="cls-2" x1="22.47" y1="37.23" x2="18.13" y2="32.89"/><line class="cls-2" x1="22.47" y1="37.23" x2="26.74" y2="32.96"/><path class="cls-3" d="M439.11,215.23l-0.9.44a2.17,2.17,0,0,0-2.05-1.13c-1.25,0-1.71.56-1.71,1.25,0,1.92,4.76,1.24,4.76,4.17,0,1.58-1.21,2.49-3.07,2.49a3.27,3.27,0,0,1-3.14-2l1-.4a2.28,2.28,0,0,0,2.13,1.33c1.19,0,1.83-.44,1.83-1.37,0-2.06-4.82-1.22-4.82-4.21,0-1.32,1.1-2.33,2.92-2.33A3.22,3.22,0,0,1,439.11,215.23Z" transform="translate(-413.7 -201.44)"/><line class="cls-4" x1="22.47" y1="10.63" x2="22.47" y2="22.6"/></svg>