<svg id="Layer_2" data-name="Layer 2" xmlns="http://www.w3.org/2000/svg" viewBox="0 0 50.95 48.73"><defs><style>.cls-1,.cls-2,.cls-3,.cls-4,.cls-5,.cls-6{fill:none;stroke:#e77724;stroke-linecap:round;stroke-linejoin:round;}.cls-2{stroke-width:1.05px;}.cls-3{stroke-width:1.22px;}.cls-4{stroke-width:0.56px;}.cls-5{stroke-width:0.54px;}.cls-6{stroke-width:0.52px;}</style></defs><title>collaborate--device-friendly</title><path class="cls-1" d="M380.78,184.6h-3.54a1.36,1.36,0,0,1-1.36-1.36v-19.4a1.36,1.36,0,0,1,1.36-1.36h9.43a1.36,1.36,0,0,1,1.36,1.36v8" transform="translate(-355.79 -142.05)"/><line class="cls-1" x1="34.42" y1="33.21" x2="34.42" y2="38.8"/><line class="cls-1" x1="36.58" y1="34.27" x2="36.58" y2="38.8"/><path class="cls-1" d="M392.37,180.85v-2.46a1.08,1.08,0,0,1,1.08-1.08h0a1.08,1.08,0,0,1,1.08,1.08V182" transform="translate(-355.79 -142.05)"/><path class="cls-1" d="M390.21,178.85v-3.34a1.08,1.08,0,0,1,1.08-1.08h0a1.08,1.08,0,0,1,1.08,1.08v3.34" transform="translate(-355.79 -142.05)"/><path class="cls-1" d="M385.86,178.85v-3.34a1.08,1.08,0,0,1,1.08-1.08h0a1.08,1.08,0,0,1,1.08,1.08v3.34" transform="translate(-355.79 -142.05)"/><line class="cls-1" x1="32.24" y1="33.21" x2="32.24" y2="38.8"/><path class="cls-1" d="M388,177.77v-3.34a1.08,1.08,0,0,1,1.08-1.08h0a1.08,1.08,0,0,1,1.08,1.08v3.34" transform="translate(-355.79 -142.05)"/><path class="cls-2" d="M385.86,175.25v5.59c0,2.41-1.18,2.25-1.58,1.6a6.51,6.51,0,0,0-.78-1.13c-0.89-1.1-2.29,0-2.29,0L384,187a5.85,5.85,0,0,0,5.36,3.29h0.4a5.14,5.14,0,0,0,4.78-4.89v-5.73" transform="translate(-355.79 -142.05)"/><path class="cls-1" d="M380,160.44v-5.27a1.86,1.86,0,0,1,1.62-2h23a1.86,1.86,0,0,1,1.62,2v14a1.86,1.86,0,0,1-1.62,2H390.21" transform="translate(-355.79 -142.05)"/><path class="cls-1" d="M390.1,151.5v-6.72a2,2,0,0,0-1.78-2.23H362.94a2,2,0,0,0-1.78,2.23v15.46a2,2,0,0,0,1.78,2.23" transform="translate(-355.79 -142.05)"/><polyline class="cls-3" points="7.15 20.43 0.61 27.7 0.61 30.05 17.88 30.05"/><polyline class="cls-4" points="22.11 18.4 7.61 18.4 7.61 2.95 32.36 2.95 32.36 9.45"/><polyline class="cls-5" points="27.24 20.17 27.24 13.58 46.71 13.58 46.71 26.99 32.23 26.99"/><polyline class="cls-6" points="24.09 39.28 22.11 39.28 22.11 23.07 30.22 23.07 30.22 30.83"/><circle class="cls-5" cx="48.44" cy="20.13" r="0.78"/></svg>