<?xml version="1.0" encoding="utf-8"?>
<!-- Generator: Adobe Illustrator 18.1.1, SVG Export Plug-In . SVG Version: 6.00 Build 0)  -->
<svg version="1.1" id="Layer_1" xmlns="http://www.w3.org/2000/svg" xmlns:xlink="http://www.w3.org/1999/xlink" x="0px" y="0px"
	 viewBox="0 0 64 42.5" enable-background="new 0 0 64 42.5" xml:space="preserve">
<g>
	<defs>
		<rect id="SVGID_1_" y="0" width="64" height="42.5"/>
	</defs>
	<clipPath id="SVGID_2_">
		<use xlink:href="#SVGID_1_"  overflow="visible"/>
	</clipPath>
	<path clip-path="url(#SVGID_2_)" fill="none" stroke="#000000" stroke-miterlimit="10" d="M62.2,42H1.8c-0.7,0-1.3-0.6-1.3-1.3V1.8
		c0-0.7,0.6-1.3,1.3-1.3h60.4c0.7,0,1.3,0.6,1.3,1.3v38.9C63.5,41.4,62.9,42,62.2,42z"/>
	<line clip-path="url(#SVGID_2_)" fill="none" stroke="#000000" stroke-miterlimit="10" x1="0.6" y1="21.3" x2="63.3" y2="21.3"/>
	<line clip-path="url(#SVGID_2_)" fill="none" stroke="#000000" stroke-miterlimit="10" x1="32" y1="0.3" x2="32" y2="42"/>
	
		<rect x="41.4" y="7.9" clip-path="url(#SVGID_2_)" fill="none" stroke="#000000" stroke-width="0.5" stroke-linecap="round" stroke-linejoin="round" stroke-miterlimit="10" width="2.7" height="10.6"/>
	
		<rect x="45.7" y="12.3" clip-path="url(#SVGID_2_)" fill="none" stroke="#000000" stroke-width="0.5" stroke-linecap="round" stroke-linejoin="round" stroke-miterlimit="10" width="2.7" height="6.3"/>
	
		<rect x="50" y="7.9" clip-path="url(#SVGID_2_)" fill="none" stroke="#000000" stroke-width="0.5" stroke-linecap="round" stroke-linejoin="round" stroke-miterlimit="10" width="2.7" height="10.6"/>
	
		<path clip-path="url(#SVGID_2_)" fill="none" stroke="#000000" stroke-width="0.5" stroke-linecap="round" stroke-miterlimit="10" d="
		M18.3,9.4v9.8h8.9c0-0.3,0-0.6,0-0.9C27.2,13.4,23.2,9.4,18.3,9.4z"/>
	
		<path clip-path="url(#SVGID_2_)" fill="none" stroke="#000000" stroke-width="0.5" stroke-linecap="round" stroke-miterlimit="10" d="
		M16.2,11.5c-4.9,0-8.9,4-8.9,8.9c0,4.9,4,8.9,8.9,8.9c4.6,0,8.4-3.5,8.9-8h-8.9V11.5z"/>
	
		<line clip-path="url(#SVGID_2_)" fill="none" stroke="#000000" stroke-width="0.5" stroke-miterlimit="10" x1="56.4" y1="34.4" x2="41.4" y2="34.4"/>
	
		<line clip-path="url(#SVGID_2_)" fill="none" stroke="#000000" stroke-width="0.5" stroke-miterlimit="10" x1="50.8" y1="31.2" x2="41.4" y2="31.2"/>
	
		<line clip-path="url(#SVGID_2_)" fill="none" stroke="#000000" stroke-width="0.5" stroke-miterlimit="10" x1="53.1" y1="28" x2="41.4" y2="28"/>
</g>
</svg>
