<svg id="Layer_1" data-name="Layer 1" xmlns="http://www.w3.org/2000/svg" viewBox="0 0 38.11 43.47"><defs><style>.cls-1,.cls-2,.cls-3,.cls-4,.cls-5,.cls-6{fill:none;stroke:#bcdde6;}.cls-1,.cls-3,.cls-4,.cls-5,.cls-6{stroke-linecap:round;stroke-linejoin:round;}.cls-1{stroke-width:0.97px;}.cls-2{stroke-miterlimit:10;}.cls-3{stroke-width:0.85px;}.cls-5{stroke-width:0.98px;}.cls-6{stroke-width:0.8px;}</style></defs><title>explore_visualize</title><path class="cls-1" d="M217.73,139.38v-8a2.13,2.13,0,0,0-1.88-2.3H209.7a2.16,2.16,0,0,0-2.16,2.16v8.1" transform="translate(-202.3 -96.39)"/><path class="cls-1" d="M235,139.27v-8a2.13,2.13,0,0,0-1.88-2.3H227a2.16,2.16,0,0,0-2.16,2.16v8.1" transform="translate(-202.3 -96.39)"/><rect class="cls-2" x="227.58" y="121.02" width="4.68" height="6.4" rx="2.34" ry="2.34" transform="translate(257.54 152.04) rotate(-180)"/><rect class="cls-2" x="210.29" y="121.02" width="4.68" height="6.4" rx="2.34" ry="2.34" transform="translate(222.97 152.04) rotate(-180)"/><line class="cls-3" x1="18.08" y1="0.49" x2="18.08" y2="20.91"/><line class="cls-3" x1="19.83" y1="10.97" x2="34.75" y2="10.97"/><line class="cls-3" x1="1.62" y1="10.97" x2="16.43" y2="10.97"/><line class="cls-4" x1="34.87" y1="37.75" x2="37.61" y2="37.75"/><line class="cls-4" x1="17.33" y1="38.05" x2="20.45" y2="38.05"/><line class="cls-4" x1="0.5" y1="37.75" x2="3.62" y2="37.75"/><rect class="cls-5" x="1.2" y="0.49" width="33.44" height="20.95" rx="1.07" ry="1.07"/><path class="cls-6" d="M210.32,100.61s7.52,0,10.16,6.82c2.52,6.47,10.18,5.89,11,5.78" transform="translate(-202.3 -96.39)"/></svg>