<svg id="Layer_1" data-name="Layer 1" xmlns="http://www.w3.org/2000/svg" viewBox="0 0 37.57 40.07"><defs><style>.cls-1{fill:#fff;stroke-width:0.79px;}.cls-1,.cls-2,.cls-3,.cls-4,.cls-5,.cls-6,.cls-7{stroke:#bcdde6;}.cls-1,.cls-4,.cls-5,.cls-6,.cls-7{stroke-linecap:round;stroke-linejoin:round;}.cls-2,.cls-3,.cls-4,.cls-5,.cls-6,.cls-7{fill:none;}.cls-2,.cls-3{stroke-miterlimit:10;}.cls-2,.cls-5{stroke-width:0.92px;}.cls-3,.cls-4{stroke-width:0.95px;}.cls-6{stroke-width:0.99px;}.cls-7{stroke-width:0.9px;}</style></defs><title>explore_present</title><path class="cls-1" d="M42.44,119.16" transform="translate(-19.22 -97.26)"/><circle class="cls-2" cx="43.67" cy="124.18" r="1.07" transform="translate(-94.23 -30.02) rotate(-45)"/><rect class="cls-3" x="4.18" y="0.47" width="5.8" height="7.94" rx="2.9" ry="2.9"/><line class="cls-4" x1="7.09" y1="11.69" x2="7.09" y2="12.68"/><line class="cls-5" x1="24.45" y1="23.54" x2="24.45" y2="24.43"/><line class="cls-4" x1="7.09" y1="14.19" x2="7.09" y2="18.66"/><line class="cls-4" x1="4.18" y1="25.16" x2="4.18" y2="39.6"/><line class="cls-4" x1="10.32" y1="25.16" x2="10.32" y2="39.6"/><path class="cls-6" d="M31.24,100.73a1.33,1.33,0,0,1,1.33-1.33H55a1.33,1.33,0,0,1,1.33,1.33v18.43A1.33,1.33,0,0,1,55,120.49H32.57" transform="translate(-19.22 -97.26)"/><path class="cls-7" d="M19.67,121.64l1.53-11.1a2,2,0,0,1,2-2h6.1a2.16,2.16,0,0,1,1.69.81l2.71,4.46a1.39,1.39,0,0,0,2,.13l6-5.65" transform="translate(-19.22 -97.26)"/></svg>