<?xml version="1.0" encoding="utf-8"?>
<!-- Generator: Adobe Illustrator 18.1.1, SVG Export Plug-In . SVG Version: 6.00 Build 0)  -->
<svg version="1.1" id="Layer_1" xmlns="http://www.w3.org/2000/svg" xmlns:xlink="http://www.w3.org/1999/xlink" x="0px" y="0px"
	 viewBox="0 0 48.7 29.6" enable-background="new 0 0 48.7 29.6" xml:space="preserve">
<line fill="none" stroke="#000000" stroke-linecap="round" stroke-linejoin="round" stroke-miterlimit="10" x1="3.4" y1="14.4" x2="15.8" y2="14.4"/>
<line fill="none" stroke="#000000" stroke-linecap="round" stroke-linejoin="round" stroke-miterlimit="10" x1="3.4" y1="16.9" x2="15.8" y2="16.9"/>
<g>
	<defs>
		<rect id="SVGID_1_" y="0" width="48.7" height="29.6"/>
	</defs>
	<clipPath id="SVGID_2_">
		<use xlink:href="#SVGID_1_"  overflow="visible"/>
	</clipPath>
	
		<line clip-path="url(#SVGID_2_)" fill="none" stroke="#000000" stroke-linecap="round" stroke-linejoin="round" stroke-miterlimit="10" x1="3.4" y1="29.1" x2="9.6" y2="29.1"/>
	
		<line clip-path="url(#SVGID_2_)" fill="none" stroke="#000000" stroke-linecap="round" stroke-linejoin="round" stroke-miterlimit="10" x1="39.8" y1="29.1" x2="45.9" y2="29.1"/>
</g>
<line fill="none" stroke="#000000" stroke-linecap="round" stroke-linejoin="round" stroke-miterlimit="10" x1="3.4" y1="19.5" x2="15.8" y2="19.5"/>
<g>
	<defs>
		<rect id="SVGID_3_" y="0" width="48.7" height="29.6"/>
	</defs>
	<clipPath id="SVGID_4_">
		<use xlink:href="#SVGID_3_"  overflow="visible"/>
	</clipPath>
	
		<path clip-path="url(#SVGID_4_)" fill="none" stroke="#000000" stroke-linecap="round" stroke-linejoin="round" stroke-miterlimit="10" d="
		M38.7,8.1c3,0.6,6.2,1.4,9.5,2.4v13.2c0,0-23,8.1-47.7,0V10.4c0,0,8.2-3.8,22.2-3.9"/>
	
		<circle clip-path="url(#SVGID_4_)" fill="none" stroke="#000000" stroke-linecap="round" stroke-linejoin="round" stroke-miterlimit="10" cx="30.5" cy="8.5" r="8"/>
	
		<path clip-path="url(#SVGID_4_)" fill="none" stroke="#000000" stroke-linecap="round" stroke-linejoin="round" stroke-miterlimit="10" d="
		M26.8,4.8c0,0-3.8,3.3-0.2,7.4"/>
	<path clip-path="url(#SVGID_4_)" d="M42,18.4L42,18.4c-0.8,0-1.5-0.7-1.5-1.5c0-0.8,0.7-1.5,1.5-1.5c0.8,0,1.5,0.7,1.5,1.5
		C43.5,17.8,42.8,18.4,42,18.4"/>
</g>
</svg>
