<?xml version="1.0" encoding="utf-8"?>
<!-- Generator: Adobe Illustrator 18.1.1, SVG Export Plug-In . SVG Version: 6.00 Build 0)  -->
<svg version="1.1" id="Layer_1" xmlns="http://www.w3.org/2000/svg" xmlns:xlink="http://www.w3.org/1999/xlink" x="0px" y="0px"
	 viewBox="0 0 27.9 40.2" enable-background="new 0 0 27.9 40.2" xml:space="preserve">
<g>
	<defs>
		<rect id="SVGID_1_" y="0" width="27.9" height="40.2"/>
	</defs>
	<clipPath id="SVGID_2_">
		<use xlink:href="#SVGID_1_"  overflow="visible"/>
	</clipPath>
	
		<path clip-path="url(#SVGID_2_)" fill="none" stroke="#000000" stroke-linecap="round" stroke-linejoin="round" stroke-miterlimit="10" d="
		M27.4,22.6v-2.4c0-1.2-1-2.2-2.2-2.2S23,19,23,20.2"/>
	
		<path clip-path="url(#SVGID_2_)" fill="none" stroke="#000000" stroke-linecap="round" stroke-linejoin="round" stroke-miterlimit="10" d="
		M23,22v-2.9c0-1.2-1-2.2-2.2-2.2s-2.2,1-2.2,2.2"/>
	
		<path clip-path="url(#SVGID_2_)" fill="none" stroke="#000000" stroke-linecap="round" stroke-linejoin="round" stroke-miterlimit="10" d="
		M18.7,22v-4c0-1.2-1-2.2-2.2-2.2s-2.2,1-2.2,2.2v4"/>
	
		<path clip-path="url(#SVGID_2_)" fill="none" stroke="#000000" stroke-linecap="round" stroke-linejoin="round" stroke-miterlimit="10" d="
		M14.3,22V7.6c0-1.2-1-2.2-2.2-2.2s-2.2,1-2.2,2.2v13.1"/>
	
		<path clip-path="url(#SVGID_2_)" fill="none" stroke="#000000" stroke-linecap="round" stroke-linejoin="round" stroke-miterlimit="10" d="
		M9.9,20.7c0,1,0,0.7,0,1.7c0,2.3-1.9,2.4-3.1,1c-0.6-0.7-1.5-1.7-2-2.5c-0.8-1.1-3-1.5-4-0.4c-0.7,0.8,0.4,2.1,0.4,2.1
		s2.9,3.8,4,6.5c1.1,2.8,1.8,5.4,3.7,7.4c2,2,4.7,3.2,7.7,3.2c6,0,10.9-4.9,10.9-10.9v-6.2"/>
	
		<path clip-path="url(#SVGID_2_)" fill="none" stroke="#000000" stroke-linecap="round" stroke-linejoin="round" stroke-miterlimit="10" d="
		M7.8,9.5c-0.3-0.6-0.4-1.3-0.4-2c0-2.6,2.1-4.7,4.7-4.7c2.6,0,4.7,2.1,4.7,4.7c0,0.7-0.1,1.3-0.4,1.9"/>
	
		<path clip-path="url(#SVGID_2_)" fill="none" stroke="#000000" stroke-linecap="round" stroke-linejoin="round" stroke-miterlimit="10" d="
		M5.8,11C5.3,10,5,8.9,5,7.7c0-4,3.2-7.2,7.2-7.2s7.2,3.2,7.2,7.2c0,1.5-0.4,2.9-1.2,4"/>
</g>
</svg>
