<svg id="Layer_2" data-name="Layer 2" xmlns="http://www.w3.org/2000/svg" viewBox="0 0 55.2 39.81"><defs><style>.cls-1,.cls-3,.cls-4{fill:none;stroke:#e77724;stroke-linecap:round;}.cls-1,.cls-4{stroke-miterlimit:10;}.cls-2{fill:#e77724;}.cls-3{stroke-linejoin:round;}.cls-4{stroke-width:0.54px;}</style></defs><title>visualize-insight</title><path class="cls-1" d="M725.4,571.76h0.74a3.63,3.63,0,0,1,3.63,3.63v28.33a3.63,3.63,0,0,1-3.63,3.63H679.2a3.63,3.63,0,0,1-3.63-3.63V575.39a3.63,3.63,0,0,1,3.63-3.63h33.61" transform="translate(-675.07 -568.04)"/><path class="cls-2" d="M695.32,594.74v-2.09h-5.9V591.3l5.82-7.79h2V591h1.55l-0.16,1.61h-1.39v2.09h-1.92Zm0-3.7,0.08-5.17h0L691.76,591v0h3.58Z" transform="translate(-675.07 -568.04)"/><path class="cls-2" d="M707.12,594.74l-3.38-4.85-1.3,1.44v3.41h-2.21V583.51h2.21v5.54h0l4.23-5.54h2.6l-4.1,5,4.44,6.22h-2.52Z" transform="translate(-675.07 -568.04)"/><polygon class="cls-3" points="42.01 0.5 36.73 13.84 40.71 13.84 35.43 25.98 50.71 9.48 46.09 9.48 49.22 0.5 42.01 0.5"/><line class="cls-4" x1="27.6" y1="3.72" x2="27.6" y2="12.87"/><line class="cls-4" x1="27.6" y1="30.16" x2="27.6" y2="39.31"/><line class="cls-4" x1="54.7" y1="21.51" x2="45.55" y2="21.51"/><line class="cls-4" x1="9.65" y1="21.51" x2="0.5" y2="21.51"/></svg>