<svg id="Layer_2" data-name="Layer 2" xmlns="http://www.w3.org/2000/svg" viewBox="0 0 55.19 36.73"><defs><style>.cls-1,.cls-2,.cls-3,.cls-4,.cls-5{fill:none;stroke:#e77724;}.cls-1,.cls-2,.cls-3,.cls-5{stroke-miterlimit:10;}.cls-2,.cls-3,.cls-4,.cls-5{stroke-linecap:round;}.cls-3{stroke-width:0.54px;}.cls-4{stroke-linejoin:round;}.cls-5{stroke-dasharray:1 2;}.cls-6{fill:#e77724;}</style></defs><title>visualize-flexible</title><rect class="cls-1" x="0.5" y="12.41" width="36.18" height="23.82" rx="0.73" ry="0.73"/><path class="cls-2" d="M589,581.11v-8.8a0.73,0.73,0,0,1,.73-0.73h52.73a0.73,0.73,0,0,1,.73.73v34.27a0.73,0.73,0,0,1-.73.73H627.5" transform="translate(-588.48 -571.08)"/><line class="cls-3" x1="0.58" y1="24.37" x2="13.09" y2="24.37"/><line class="cls-3" x1="24.16" y1="24.37" x2="36.68" y2="24.37"/><line class="cls-3" x1="39.02" y1="24.37" x2="54.69" y2="24.37"/><line class="cls-3" x1="45.12" y1="12.41" x2="54.69" y2="12.41"/><line class="cls-3" x1="18.59" y1="12.41" x2="18.59" y2="16.81"/><line class="cls-3" x1="18.59" y1="29.72" x2="18.59" y2="36.23"/><line class="cls-3" x1="18.59" y1="0.5" x2="18.59" y2="10.03"/><line class="cls-3" x1="36.68" y1="0.5" x2="36.68" y2="10.03"/><polyline class="cls-4" points="47.26 3.05 51.25 3.05 51.25 7.08"/><line class="cls-5" x1="45.74" y1="8.64" x2="38.03" y2="16.34"/><polyline class="cls-4" points="47.26 3.05 51.25 3.05 51.25 7.08"/><line class="cls-2" x1="51.22" y1="3.15" x2="46.68" y2="7.69"/><path class="cls-2" d="M604.63,592.85v-1.46A2.39,2.39,0,0,1,607,589h0.11a2.39,2.39,0,0,1,2.38,2.38v1.46" transform="translate(-588.48 -571.08)"/><path class="cls-2" d="M610.35,599.37h-6.57a0.8,0.8,0,0,1-.79-0.79v-4.86a0.8,0.8,0,0,1,.79-0.79h6.57a0.8,0.8,0,0,1,.79.79v4.86A0.8,0.8,0,0,1,610.35,599.37Z" transform="translate(-588.48 -571.08)"/><circle class="cls-6" cx="18.59" cy="24.34" r="0.88"/><polygon class="cls-6" points="18.82 24.37 18.59 24.37 18.36 24.37 17.63 26.48 18.59 26.48 19.55 26.48 18.82 24.37"/></svg>