<svg id="Layer_2" data-name="Layer 2" xmlns="http://www.w3.org/2000/svg" viewBox="0 0 50.36 35.35"><defs><style>.cls-1,.cls-2,.cls-3,.cls-4,.cls-5{fill:none;stroke:#e77724;stroke-linecap:round;stroke-linejoin:round;}.cls-2{stroke-width:1.22px;}.cls-3{stroke-width:0.56px;}.cls-4{stroke-width:0.5px;}.cls-5{stroke-width:0.52px;}</style></defs><title>visualize-insight</title><path class="cls-1" d="M531.69,602.77v2.58a1.24,1.24,0,0,1-1.24,1.24H512.74a1.24,1.24,0,0,1-1.24-1.24v-8.61a1.24,1.24,0,0,1,1.24-1.24h6.67" transform="translate(-498.89 -571.75)"/><path class="cls-1" d="M522.51,593.59v-8.71a1.86,1.86,0,0,1,1.62-2h23a1.86,1.86,0,0,1,1.62,2v14a1.86,1.86,0,0,1-1.62,2H533.72" transform="translate(-498.89 -571.75)"/><path class="cls-1" d="M532.61,580.48v-6a2,2,0,0,0-1.78-2.23H505.45a2,2,0,0,0-1.78,2.23v15.46a2,2,0,0,0,1.78,2.23" transform="translate(-498.89 -571.75)"/><polyline class="cls-2" points="6.36 20.51 0.61 26.82 0.61 29.16 10.54 29.16"/><polyline class="cls-3" points="21.84 17.68 7.02 17.68 7.02 2.95 31.77 2.95 31.77 8.88"/><polyline class="cls-4" points="26.65 22.07 26.65 13.58 46.12 13.58 46.12 26.99 34.69 26.99"/><polyline class="cls-5" points="29.82 25.6 29.82 33 15.02 33 15.02 25.6 29.82 25.6"/><path class="cls-1" d="M519.41,595.49h11a1.24,1.24,0,0,1,1.24,1.24v6.67" transform="translate(-498.89 -571.75)"/><line class="cls-4" x1="7.02" y1="10.32" x2="23.18" y2="10.32"/><line class="cls-4" x1="19.25" y1="2.95" x2="19.25" y2="17.68"/><line class="cls-4" x1="26.67" y1="20.25" x2="46.12" y2="20.25"/><line class="cls-4" x1="36.39" y1="13.58" x2="36.39" y2="26.99"/><line class="cls-4" x1="22.42" y1="33" x2="22.42" y2="25.6"/><line class="cls-4" x1="15.02" y1="29.3" x2="29.82" y2="29.3"/></svg>